<svg xmlns="http://www.w3.org/2000/svg" viewBox="0 0 281.68 59.71"><defs><style>.cls-1,.cls-4{fill:#ed1c24;}.cls-1{fill-rule:evenodd;}.cls-2{fill:none;stroke:#ed1c24;stroke-miterlimit:2.61;stroke-width:0.22px;}.cls-3{fill:#939292;}</style></defs><title>Asset 1</title><g id="Layer_2" data-name="Layer 2"><g id="Layer_2-2" data-name="Layer 2"><path id="_3" data-name="3" class="cls-1" d="M58.83,59.71l1.79-6.61H47.27c-3.25,0-5.91-1.33-5.91-4.91a10.23,10.23,0,0,1,.37-2.57l3.32-12.37c1.18-4.4,4.11-6.85,8.7-6.85h14l1.76-6.61H44c-6.52,0-10.68,2.84-12.91,8.3-1.1,3.15-3.63,5.22-8.37,5.22-3.25,0-5.9-1.33-5.9-4.91a10.69,10.69,0,0,1,.36-2.57l3.32-12.38c1.18-4.4,4.11-6.84,8.7-6.84,3.25,0,5.88,1.35,5.88,4.91a10.16,10.16,0,0,1-.37,2.57L32.58,22c2.74-2.8,6.53-4.27,11.41-4.27h5.27l2-7.45a17,17,0,0,0,.62-4.19c0-4.95-3.71-6.1-8.08-6.1H19.43C11.93,0,7.57,3.76,5.64,10.92l-5,18.7A17.06,17.06,0,0,0,0,33.82c0,5,3.71,6.1,8.08,6.1H27.72l-2.55,9.5a17,17,0,0,0-.61,4.13c0,5,3.67,6.16,8.08,6.16Z"/></g><g id="Layer_3" data-name="Layer 3"><line id="_2" data-name="2" class="cls-2" x1="75.09" x2="75.09" y2="59.71"/></g><g id="Layer_4" data-name="Layer 4"><path class="cls-3" d="M274.87,42.81h.93V43a3.73,3.73,0,0,0,.11,1.1.82.82,0,0,0,.37.5,1.76,1.76,0,0,0,.62.16c.28,0,.86.05,1.73.05a4.51,4.51,0,0,0,1.1-.1,1.1,1.1,0,0,0,.59-.3.8.8,0,0,0,.16-.38,4.73,4.73,0,0,0,0-.73,2.31,2.31,0,0,0-.18-1.16,1,1,0,0,0-.74-.28L277,41.61a2.41,2.41,0,0,1-1.6-.57,2.49,2.49,0,0,1-.44-1.65,3.78,3.78,0,0,1,.15-1.17,1.57,1.57,0,0,1,.47-.73,1.47,1.47,0,0,1,.7-.32,9.69,9.69,0,0,1,1.61-.09h.3a9.21,9.21,0,0,1,1.8.12,2,2,0,0,1,.88.43,1.17,1.17,0,0,1,.36.57,3.48,3.48,0,0,1,.11.93v.25c0,.06,0,.11,0,.16h-.93v-.21a4.17,4.17,0,0,0-.05-.71.76.76,0,0,0-.17-.36,1.25,1.25,0,0,0-.62-.24,12.63,12.63,0,0,0-1.7-.07,2.88,2.88,0,0,0-1.62.29,1.56,1.56,0,0,0-.33,1.17,1.66,1.66,0,0,0,.22,1,1.13,1.13,0,0,0,.83.33l2.63.22a2.07,2.07,0,0,1,1.44.56,2.43,2.43,0,0,1,.42,1.6,5.4,5.4,0,0,1-.11,1.24A1.63,1.63,0,0,1,281,45a1.65,1.65,0,0,1-.82.48,8.44,8.44,0,0,1-1.87.14h-.41a7.59,7.59,0,0,1-1.63-.12,1.74,1.74,0,0,1-.8-.41,1.48,1.48,0,0,1-.46-.73,3.76,3.76,0,0,1-.15-1.16Zm-13.39,2.71V37.18h1.43l4.52,7.45V37.18h.92v8.34h-1.42l-4.53-7.45v7.45ZM248,39.94a3,3,0,0,1,.66-2.23,3.41,3.41,0,0,1,2.35-.63h1a3.41,3.41,0,0,1,2.36.62,3.06,3.06,0,0,1,.65,2.24v2.83a3,3,0,0,1-.66,2.23,3.41,3.41,0,0,1-2.35.63h-1a3.41,3.41,0,0,1-2.35-.63,3,3,0,0,1-.66-2.23Zm3.79-2h-.52A5.87,5.87,0,0,0,250,38a1.71,1.71,0,0,0-.63.32,1.17,1.17,0,0,0-.34.58,4.93,4.93,0,0,0-.11,1.24v2.36a4.84,4.84,0,0,0,.11,1.23,1.1,1.1,0,0,0,.34.57,1.57,1.57,0,0,0,.63.32,5.7,5.7,0,0,0,1.24.1h.52a5.87,5.87,0,0,0,1.25-.1,1.57,1.57,0,0,0,.63-.32,1.15,1.15,0,0,0,.34-.55,5.67,5.67,0,0,0,.1-1.25V40.17a5.63,5.63,0,0,0-.1-1.24,1.21,1.21,0,0,0-.35-.58A1.58,1.58,0,0,0,253,38,6,6,0,0,0,251.74,38Zm-11.19,7.57V37.18h.93v8.34ZM228.7,38.06v-.88H235v.88h-2.66v7.46h-.93V38.06Zm-12.24-.88h.93v5.48a5.54,5.54,0,0,0,.08,1.12,1.07,1.07,0,0,0,.3.52,1.27,1.27,0,0,0,.54.28,4.54,4.54,0,0,0,1.07.08h.88a4.59,4.59,0,0,0,1.08-.08,1.27,1.27,0,0,0,.54-.28,1.07,1.07,0,0,0,.29-.51,4.92,4.92,0,0,0,.08-1.13V37.18h.93v5.59a3.13,3.13,0,0,1-.63,2.23,3.1,3.1,0,0,1-2.22.63h-1a3.11,3.11,0,0,1-2.23-.63,3.13,3.13,0,0,1-.63-2.23Zm-11.08,8.34V37.18h.9v7.47H211v.87Zm-13.54-5.58a3,3,0,0,1,.66-2.23,3.41,3.41,0,0,1,2.35-.63h1.05a3.41,3.41,0,0,1,2.36.62,3.06,3.06,0,0,1,.65,2.24v2.83a3,3,0,0,1-.66,2.23,3.41,3.41,0,0,1-2.35.63h-1.05A3.41,3.41,0,0,1,192.5,45a3,3,0,0,1-.66-2.23Zm3.79-2h-.52a5.87,5.87,0,0,0-1.24.09,1.71,1.71,0,0,0-.63.32,1.17,1.17,0,0,0-.34.58,4.93,4.93,0,0,0-.11,1.24v2.36a4.84,4.84,0,0,0,.11,1.23,1.1,1.1,0,0,0,.34.57,1.57,1.57,0,0,0,.63.32,5.7,5.7,0,0,0,1.24.1h.52a5.81,5.81,0,0,0,1.25-.1,1.45,1.45,0,0,0,.63-.32,1.08,1.08,0,0,0,.34-.55,5.1,5.1,0,0,0,.1-1.25V40.17a5.63,5.63,0,0,0-.1-1.24,1.21,1.21,0,0,0-.35-.58,1.58,1.58,0,0,0-.62-.31A5.92,5.92,0,0,0,195.63,38ZM179,42.81h.93V43a4.11,4.11,0,0,0,.11,1.1.82.82,0,0,0,.37.5,1.76,1.76,0,0,0,.62.16c.28,0,.86.05,1.73.05a4.61,4.61,0,0,0,1.11-.1,1.1,1.1,0,0,0,.58-.3.8.8,0,0,0,.16-.38,4.53,4.53,0,0,0,0-.73,2.27,2.27,0,0,0-.19-1.16,1,1,0,0,0-.74-.28l-2.58-.21a2.36,2.36,0,0,1-1.59-.57,2.43,2.43,0,0,1-.45-1.65,3.78,3.78,0,0,1,.15-1.17,1.65,1.65,0,0,1,.47-.73,1.46,1.46,0,0,1,.71-.32,9.47,9.47,0,0,1,1.6-.09h.3a9.4,9.4,0,0,1,1.81.12,1.88,1.88,0,0,1,.87.43,1.17,1.17,0,0,1,.36.57,3.48,3.48,0,0,1,.11.93v.25a.81.81,0,0,1,0,.16h-.93v-.21a3.33,3.33,0,0,0-.05-.71.76.76,0,0,0-.17-.36,1.21,1.21,0,0,0-.62-.24A12.55,12.55,0,0,0,182,38a2.85,2.85,0,0,0-1.62.29,1.56,1.56,0,0,0-.33,1.17,1.67,1.67,0,0,0,.21,1,1.13,1.13,0,0,0,.83.33l2.63.22a2.05,2.05,0,0,1,1.44.56,2.43,2.43,0,0,1,.42,1.6,5.4,5.4,0,0,1-.11,1.24,1.63,1.63,0,0,1-.35.68,1.6,1.6,0,0,1-.82.48,8.44,8.44,0,0,1-1.87.14H182a7.59,7.59,0,0,1-1.63-.12,1.74,1.74,0,0,1-.8-.41,1.48,1.48,0,0,1-.46-.73,3.76,3.76,0,0,1-.15-1.16Zm-16,2.71V37.18h.92v3.53h.71L168,37.18h1.22l-3.85,4,4.34,4.35H168.4l-3.84-3.91h-.71v3.91Zm-12.74,0V37.18H154a3.23,3.23,0,0,1,1.93.42,1.75,1.75,0,0,1,.53,1.48v1.26a1.71,1.71,0,0,1-.26,1,1.19,1.19,0,0,1-.81.47,1.35,1.35,0,0,1,.83.51,2.22,2.22,0,0,1,.24,1.17v2h-1V43.8a1.88,1.88,0,0,0-.28-1.21,1.49,1.49,0,0,0-1.11-.31h-3v3.24Zm3.58-7.46h-2.66V41.4h2.66a2.46,2.46,0,0,0,1.37-.25,1.16,1.16,0,0,0,.32-.93v-1a1.13,1.13,0,0,0-.31-.93A2.43,2.43,0,0,0,153.77,38.06Zm-17.11,1.88a3,3,0,0,1,.66-2.23,3.39,3.39,0,0,1,2.35-.63h1.05a3.43,3.43,0,0,1,2.36.62,3.06,3.06,0,0,1,.65,2.24v2.83a3,3,0,0,1-.67,2.23,3.38,3.38,0,0,1-2.34.63h-1.05a3.39,3.39,0,0,1-2.35-.63,3,3,0,0,1-.66-2.23Zm3.79-2h-.52a6,6,0,0,0-1.25.09,1.59,1.59,0,0,0-.62.32,1.18,1.18,0,0,0-.35.58,5.06,5.06,0,0,0-.1,1.24v2.36a5,5,0,0,0,.1,1.23,1.11,1.11,0,0,0,.35.57,1.47,1.47,0,0,0,.62.32,5.81,5.81,0,0,0,1.25.1h.52a5.7,5.7,0,0,0,1.24-.1,1.55,1.55,0,0,0,.64-.32,1.15,1.15,0,0,0,.34-.55,5.85,5.85,0,0,0,.09-1.25V40.17a5.06,5.06,0,0,0-.1-1.24,1.13,1.13,0,0,0-.34-.58,1.62,1.62,0,0,0-.63-.31A5.87,5.87,0,0,0,140.45,38ZM120,37.18h1l1.91,7.22,1.91-7.22h1.32L128,44.4l1.91-7.22h1l-2.27,8.34h-1.18l-2-7.34-2,7.34h-1.23Zm-11.18.88v-.88h6.25v.88h-2.67v7.46h-.93V38.06ZM97.89,45.52V37.18h5.85v.88H98.8V40.8h4.8v.84H98.8v3h4.94v.87Zm-13.62,0V37.18H85.7l4.52,7.45V37.18h.92v8.34H89.72l-4.53-7.45v7.45Z"/><path class="cls-4" d="M90.41,28.11H95c2.32,0,3.9-.12,5-1S101.3,25,101.3,23V19.18c0-2-.4-3.38-1.38-4.15s-2.63-1-5-1H90.39c-2.32,0-3.92.13-5,1s-1.38,2.21-1.38,4.32v3.73c0,2,.36,3.24,1.39,4.07s2.66,1,5,1m5.37-12.53c1.56,0,2.56.21,3.16,1A3.85,3.85,0,0,1,99.45,19v4a3.89,3.89,0,0,1-.51,2.47c-.6.79-1.6,1-3.16,1h-6.2c-1.56,0-2.56-.2-3.16-1a4.28,4.28,0,0,1-.53-2.68v-3.6a4.25,4.25,0,0,1,.53-2.67c.6-.79,1.6-1,3.16-1Z"/><path class="cls-4" d="M106.07,27.94V22.53h7.82c3.83,0,5.37-.43,5.37-3.24V17.5c0-2.81-1.54-3.26-5.37-3.26h-9.51v13.7Zm0-7V15.73h8.31c2.53,0,3.06.45,3.06,2.3v.66c0,1.84-.53,2.3-3.06,2.3Z"/><polygon class="cls-4" points="129.11 27.94 129.11 15.77 135.89 15.77 135.89 14.24 120.63 14.24 120.63 15.77 127.41 15.77 127.41 27.94 129.11 27.94"/><rect class="cls-4" x="138.1" y="14.24" width="1.7" height="13.7"/><path class="cls-4" d="M149,28.11h4.3c2.31,0,3.86-.1,4.76-.87s1.1-1.73,1.1-3.32c0-.2,0-.43,0-.67h-1.57v.37c0,2.28-.86,2.9-3.35,2.9h-5.92c-1.47,0-2.39-.22-2.94-1a4.48,4.48,0,0,1-.49-2.66V19.23a4.44,4.44,0,0,1,.49-2.65c.55-.78,1.47-1,2.94-1h5.94c2.34,0,3.2.71,3.2,2.88v.21H159c0-.27,0-.51,0-.74,0-3.14-1.56-3.86-5.7-3.86H149c-2.18,0-3.65.13-4.63,1s-1.3,2.21-1.3,4.32v3.73c0,1.94.32,3.24,1.3,4.07s2.5,1,4.65,1"/><rect x="161.89" y="22.32" width="5.24" height="1.38"/><path d="M183.17,19.18h4.21c0-.27,0-.53,0-.78,0-1.63-.37-2.77-1.26-3.44s-2.62-.89-5-.89h-4.67c-4.67,0-6.46,1.17-6.46,5.28v3.73c0,1.86.43,3.11,1.58,4s2.71,1,4.88,1h4.67c2.39,0,4-.15,5.07-.93s1.37-1.84,1.37-3.54c0-.32,0-.64,0-1h-4.24v.15c0,1.64-.93,1.89-3.24,1.89h-2.43c-2.45,0-3.38-.43-3.38-2.58V20.19c0-2.33.66-2.69,3.38-2.69H181c1.51,0,2.2.45,2.2,1.54Z"/><path d="M196.41,28.11h4.9c2.49,0,4.2-.12,5.33-1S208.11,25,208.11,23V19.18c0-2-.43-3.36-1.47-4.15s-2.83-1-5.33-1h-4.92c-2.51,0-4.2.13-5.31,1s-1.49,2.21-1.49,4.32v3.73c0,2,.38,3.24,1.49,4.07s2.88,1,5.33,1m1.13-3.43c-2.66,0-3.69-.42-3.69-2.58V20.19c0-2.31,1-2.69,3.67-2.69h2.68c2.65,0,3.67.4,3.67,2.62v1.94c0,2.22-1,2.62-3.67,2.62Z"/><path d="M221,17.65c1.08,0,1.51.51,1.51,1.6,0,1.34-.34,1.87-1.51,1.87h-6.16V17.65Zm.15-3.41H210.68v13.7h4.2V24.53h7.82c3,0,4.11-1.47,4.11-5.15,0-2.37-.51-3.8-2-4.57A7.92,7.92,0,0,0,221.19,14.24Z"/><path d="M239.44,17.65c1.07,0,1.51.51,1.51,1.6,0,1.34-.34,1.87-1.51,1.87h-6.16V17.65Zm.15-3.41H229.08v13.7h4.2V24.53h7.82c3,0,4.11-1.47,4.11-5.15,0-2.37-.51-3.8-2-4.57A8,8,0,0,0,239.59,14.24Z"/><polygon points="262.38 17.58 262.38 14.24 247.42 14.24 247.42 27.94 262.55 27.94 262.55 24.62 251.6 24.62 251.6 22.53 261.76 22.53 261.76 19.65 251.6 19.65 251.6 17.58 262.38 17.58"/><path d="M275.91,17.65c1.08,0,1.51.49,1.51,1.55,0,1.3-.34,1.8-1.51,1.8h-6.65V17.65Zm.16-3.41h-11v13.7h4.2V24.43h6.24c1.38,0,1.88.25,1.88,1.42v2.09h4.19V25.13a2.49,2.49,0,0,0-2.17-2.6c1.72-.41,2.28-1.54,2.28-3.81C281.68,15.16,280.21,14.24,276.07,14.24Z"/><rect id="_1" data-name="1" class="cls-3" x="84.06" y="31.95" width="197.51" height="1"/></g></g></svg>