<?xml version="1.0" encoding="UTF-8"?>
<svg width="338px" height="150px" viewBox="0 0 338 150" version="1.1" xmlns="http://www.w3.org/2000/svg" xmlns:xlink="http://www.w3.org/1999/xlink">
    <title>logo - dpwrold</title>
    <defs>
        <polygon id="path-1" points="0.451363636 0.28399373 48.6144545 0.28399373 48.6144545 49.0909091 0.451363636 49.0909091"></polygon>
    </defs>
    <g id="logo---dpwrold" stroke="none" stroke-width="1" fill="none" fill-rule="evenodd">
        <g id="DP-world" transform="translate(0.000000, 1.000000)">
            <path d="M210,40.9090909 C210,63.5027356 191.684013,81.8181818 169.090369,81.8181818 C146.497805,81.8181818 128.181818,63.5027356 128.181818,40.9090909 C128.181818,18.3154462 146.497805,0 169.090369,0 C191.684013,0 210,18.3154462 210,40.9090909" id="Fill-1" fill="#FFFFFF"></path>
            <path d="M9.85698555,138.53027 L16.3001432,138.53027 C20.5945092,138.53027 24.1375756,137.161866 26.930415,134.423956 C29.7205731,131.685495 31.1164565,128.242432 31.1164565,124.092012 C31.1164565,119.94104 29.7205731,116.506799 26.930415,113.790942 C24.1375756,111.076187 20.5945092,109.71881 16.3001432,109.71881 L9.85698555,109.71881 L9.85698555,138.53027 Z M16.1065536,100.909091 C23.3219249,100.909091 29.2599262,103.094567 33.9200211,107.466072 C38.5790435,111.837576 40.9090909,117.336001 40.9090909,123.958038 C40.9090909,130.582281 38.5259538,136.12371 33.7580707,140.583979 C28.9912602,145.043144 22.9990967,147.272727 15.7847979,147.272727 L0,147.272727 L0,100.909091 L16.1065536,100.909091 Z" id="Fill-3" fill="#173A64"></path>
            <path d="M55.964538,109.45407 L55.964538,124.28911 L64.4366899,124.28911 C66.778284,124.28911 68.6727658,123.594441 70.1143897,122.20345 C71.5575806,120.813009 72.2794372,119.035539 72.2794372,116.871039 C72.2794372,114.708193 71.5575806,112.931274 70.1143897,111.53973 C68.6727658,110.148739 66.778284,109.45407 64.4366899,109.45407 L55.964538,109.45407 Z M46.3636364,100.909091 L65.3768794,100.909091 C70.3144411,100.909091 74.2877864,102.355766 77.2990044,105.248015 C80.3117893,108.139712 81.8181818,111.925658 81.8181818,116.606403 C81.8181818,121.242491 80.2595566,125.06317 77.1428284,128.064581 C74.0266226,131.067094 70.0005223,132.569453 65.0645275,132.569453 L55.964538,132.569453 L55.964538,147.272727 L46.3636364,147.272727 L46.3636364,100.909091 Z" id="Fill-5" fill="#173A64"></path>
            <g id="Group-9" transform="translate(160.909091, 98.181818)">
                <mask id="mask-2" fill="white">
                    <use xlink:href="#path-1"></use>
                </mask>
                <g id="Clip-8"></g>
                <path d="M34.6246364,35.3298245 C37.311,32.483116 38.655,28.9361567 38.655,24.6883824 C38.655,20.4846207 37.311,16.9596677 34.6246364,14.112395 C31.9377273,11.2656865 28.5859091,9.84261442 24.5664545,9.84261442 C20.5033636,9.84261442 17.139,11.2656865 14.475,14.112395 C11.8104545,16.9596677 10.4773636,20.4846207 10.4773636,24.6883824 C10.4773636,28.9361567 11.8104545,32.483116 14.475,35.3298245 C17.139,38.1770972 20.5033636,39.6007335 24.5664545,39.6007335 C28.5859091,39.6007335 31.9377273,38.1770972 34.6246364,35.3298245 M41.7668182,7.26618809 C46.3328182,11.9207962 48.6144545,17.6830533 48.6144545,24.5512665 C48.6144545,31.4211724 46.2771818,37.2285705 41.6037273,41.9728966 C36.9297273,46.7189154 31.1844545,49.0910784 24.369,49.0910784 C17.5546364,49.0910784 11.865,46.7753417 7.299,42.1421755 C2.73354545,37.5107022 0.451363636,31.7602947 0.451363636,24.8903887 C0.451363636,18.0221755 2.78809091,12.2034922 7.46209091,7.43490282 C12.1382727,2.66800627 17.8813636,0.28399373 24.6968182,0.28399373 C31.5122727,0.28399373 37.203,2.61157994 41.7668182,7.26618809" id="Fill-7" fill="#173A64" mask="url(#mask-2)"></path>
            </g>
            <path d="M225.273353,109.45407 L225.273353,123.495203 L234.320843,123.495203 C236.673255,123.495203 238.533711,122.842986 239.904348,121.541309 C241.272315,120.238529 241.956566,118.549822 241.956566,116.473534 C241.956566,114.399451 241.272315,112.710192 239.904348,111.407413 C238.533711,110.105184 236.673255,109.45407 234.320843,109.45407 L225.273353,109.45407 Z M215.454545,100.909091 L235.540849,100.909091 C240.331671,100.909091 244.224581,102.300083 247.219045,105.082618 C250.213509,107.863499 251.711809,111.484598 251.711809,115.943711 C251.711809,119.211963 250.86571,122.082158 249.176183,124.554297 C247.486122,127.027539 245.187125,128.815485 242.278126,129.919788 L253.636364,147.272727 L242.278126,147.272727 L232.203993,131.310779 L225.273353,131.310779 L225.273353,147.272727 L215.454545,147.272727 L215.454545,100.909091 Z" id="Fill-10" fill="#173A64"></path>
            <polygon id="Fill-12" fill="#173A64" points="259.090909 147.272727 259.090909 100.909091 269.206942 100.909091 269.206942 138.265187 291.818182 138.265187 291.818182 147.272727"></polygon>
            <path d="M307.129584,138.53027 L313.573193,138.53027 C317.866966,138.53027 321.410523,137.161866 324.203325,134.423956 C326.993447,131.685495 328.389312,128.242432 328.389312,124.092012 C328.389312,119.94104 326.993447,116.506799 324.203325,113.790942 C321.410523,111.076187 317.866966,109.71881 313.573193,109.71881 L307.129584,109.71881 L307.129584,138.53027 Z M313.37907,100.909091 C320.594883,100.909091 326.532806,103.094567 331.192304,107.466072 C335.851801,111.837576 338.181818,117.336001 338.181818,123.958038 C338.181818,130.582281 335.798712,136.12371 331.030355,140.583979 C326.264144,145.043144 320.272059,147.272727 313.057854,147.272727 L297.272727,147.272727 L297.272727,100.909091 L313.37907,100.909091 Z" id="Fill-14" fill="#173A64"></path>
            <polygon id="Fill-16" fill="#173A64" points="150.601659 100.909091 141.131327 131.90621 141.060005 132.179116 131.466334 100.909091 121.728945 100.909091 125.304719 112.642931 118.976865 133.277354 109.005667 100.909091 98.1818182 100.909091 113.386366 147.272727 113.396555 147.272727 123.228325 147.272727 123.23905 147.272727 129.435521 126.217092 135.848641 147.272727 137.136735 147.272727 145.691137 147.272727 145.706152 147.272727 160.909091 100.909091"></polygon>
            <path d="M144.545455,22.957868 C144.545455,25.3388875 144.759051,27.6892592 145.177656,30 C154.841,19.3076056 169.844245,12.4398492 186.696331,12.4398492 C191.953585,12.4398492 197.025687,13.117272 201.818182,14.3606228 C194.365933,5.58583154 183.168776,0 170.643889,0 C162.166057,0 154.296813,2.55856554 147.784279,6.9322225 L146.672292,10.1840631 C145.26084,14.309367 144.545455,18.6069328 144.545455,22.957868" id="Fill-18" fill="#00A172"></path>
            <path d="M189.495163,68.1818182 C192.66916,68.1818182 195.841539,67.8801547 198.925512,67.2844101 L201.751275,66.7384913 C206.927347,59.8668472 210,51.3070793 210,42.0253772 C210,37.84 209.372532,33.8024758 208.212471,30 C201.193346,46.5481625 184.154677,58.7560542 163.636364,60.8254545 C166.058908,62.3483946 168.632389,63.6557834 171.343332,64.7340812 C177.089193,67.0217408 183.196225,68.1818182 189.495163,68.1818182" id="Fill-20" fill="#232323"></path>
            <path d="M189.27072,69.1971316 C175.328549,69.1971316 162.760014,63.5644879 153.898637,54.5454545 C148.844641,58.7740523 143.817977,63.4223824 139.090909,68.2386055 C146.510048,76.5811291 157.204369,81.8181818 169.093857,81.8181818 C180.980128,81.8181818 191.671234,76.5827751 199.090909,68.2446409 C195.919164,68.8679297 192.63487,69.1971316 189.27072,69.1971316" id="Fill-22" fill="#C51F41"></path>
            <path d="M140.287406,22.4342629 C140.287406,17.467029 141.073976,12.6798037 142.526433,8.18181818 C133.756156,15.9188437 128.181818,27.4778472 128.181818,40.4011264 C128.181818,45.3639019 129.005233,50.1238194 130.513225,54.5454545 C135.012104,50.1026419 139.749677,45.821447 144.545455,41.8707321 C141.810884,35.9415947 140.287406,29.3615285 140.287406,22.4342629" id="Fill-24" fill="#C51F41"></path>
            <path d="M184.445269,16.3636364 C185.82368,16.3636364 187.084524,16.8400134 188.181818,17.5548589 C187.86726,17.6830497 187.554793,17.8112405 187.24546,17.9416704 C183.820334,19.3786386 181.319024,21.8808777 177.530746,25.6622257 L174.570663,28.59382 C172.482668,30.4148007 170.546204,31.8920734 169.33918,32.7272727 C168.370426,29.2840349 170.377953,27.6673757 172.913748,25.674541 L173.067892,25.5525078 C175.075418,23.9554411 175.831507,22.8744962 176.970603,21.2393641 L177.495737,20.5043663 C178.738815,18.8804299 180.419765,17.1445365 183.038119,16.5298925 C183.518316,16.4162562 183.988063,16.3636364 184.445269,16.3636364" id="Fill-26" fill="#173A64"></path>
            <path d="M193.636364,30 C193.409627,31.2069268 192.843614,32.4816733 191.674625,33.8630877 C189.010059,37.0216408 186.203162,37.6939116 182.969272,37.747904 L179.837441,37.5734164 C179.757449,37.5694658 179.674147,37.5661736 179.590293,37.5661736 C178.938771,37.5661736 178.145469,37.688644 177.24073,37.8256003 C176.11091,37.9961371 174.893926,38.1818182 173.717214,38.1818182 C171.936423,38.1818182 170.247761,37.7577806 169.090909,36.2242658 C171.116641,35.1661472 173.977051,33.9282736 176.802153,33.4436592 L177.372028,33.398885 C177.390785,33.3975681 179.239431,33.2553444 181.187378,33.2224222 L182.539521,33.2606119 C182.950515,33.2836574 183.375853,33.3040692 183.821051,33.3040692 C185.03307,33.3040692 186.381351,33.1394583 187.934302,32.3493262 C189.78019,31.4439665 191.700554,30.6683201 193.636364,30" id="Fill-28" fill="#173A64"></path>
            <path d="M169.390389,38.9935389 C168.152198,38.4329658 167.084733,37.4582757 166.391051,35.8023685 C165.720057,34.2020137 165.562376,32.8912041 165.751253,31.7784749 C166.017835,28.9413802 168.367733,27.2243094 170.500961,25.6772623 L170.664881,25.5571796 C171.159477,25.1935646 171.575232,24.8619343 171.938806,24.5454545 C170.961525,24.6986442 169.743186,24.8142378 168.128943,24.9438599 C164.655995,25.2188156 163.006019,26.9140022 162.237467,28.2882199 C161.347534,29.8784744 160.909091,31.6645646 160.909091,33.4506549 C160.909091,36.0621737 161.838727,38.6731313 163.625965,40.6803085 C165.357051,42.6223941 167.602584,43.6363636 169.989349,43.6363636 C171.110131,43.6363636 172.264377,43.4119099 173.408981,42.9545855 C174.789538,42.4035517 175.799716,41.3525473 176.694186,40.423309 C176.888735,40.2201784 177.07988,40.0338818 177.272727,39.8470241 C176.229652,39.9744016 175.111139,40.1006568 173.994328,40.1006568 C172.108965,40.1006568 170.591145,39.7319916 169.390389,38.9935389" id="Fill-30" fill="#173A64"></path>
            <path d="M159.720414,35.4545455 C150.117881,41.5925424 139.992841,49.7644797 130.909091,58.5676027 C131.513539,59.9984342 132.194608,61.3871506 132.950168,62.7272727 C141.704558,54.1239262 151.533758,46.0642956 160.909091,39.9414169 C160.236004,38.5554002 159.831087,37.0316997 159.720414,35.4545455" id="Fill-32" fill="#173A64"></path>
            <path d="M164.082167,42.0843603 C163.773288,41.7121825 163.49695,41.3158516 163.236624,40.9090909 C154.39845,47.1647518 144.909977,55.5200883 136.363636,64.4754105 C137.141516,65.7615647 137.986542,66.9977658 138.888903,68.1818182 C147.609311,58.9778285 157.35656,50.3908416 166.363636,44.1231041 C165.531523,43.5906374 164.763974,42.9066646 164.082167,42.0843603" id="Fill-34" fill="#173A64"></path>
            <path d="M188.221692,19.7282786 C187.898877,19.8448053 187.578792,19.962377 187.257615,20.083084 C183.950804,21.3209839 181.427817,23.571046 177.572055,27.0083215 L177.272727,27.2727273 C185.000091,24.3031261 194.704222,22.1690682 204.545455,20.2320083 C203.750706,18.8911677 202.875662,17.6004912 201.929064,16.3636364 C198.230068,17.103032 194.558382,17.8763929 191.002494,18.7176841 L188.221692,19.7282786 Z" id="Fill-36" fill="#173A64"></path>
            <path d="M180.579921,32.6124893 L182.005083,32.6474487 C182.40797,32.6643457 182.82279,32.6847388 183.25693,32.6847388 C184.239428,32.6847388 185.435587,32.5985055 186.902231,31.9593305 C188.754146,31.1791525 190.783353,30.4595709 192.934734,29.8233092 L193.420017,29.6793929 C197.7546,28.253048 202.457407,27.2042651 207.272727,26.322122 C206.707322,24.7774978 206.061226,23.2742422 205.33728,21.8181818 C194.759373,23.8178614 184.690047,26.7113371 177.272727,32.7272727 C178.078501,32.6829908 179.289434,32.6293863 180.579921,32.6124893" id="Fill-38" fill="#173A64"></path>
        </g>
    </g>
</svg>