<svg xmlns="http://www.w3.org/2000/svg" viewBox="0 0 155.61 120"><defs><style>.cls-1{fill:teal;}.cls-2,.cls-3{fill:#fff;}.cls-3,.cls-4{stroke:#fff;stroke-width:0.84px;}.cls-4{fill:#37c871;}</style></defs><title>Asset 1</title><g id="Layer_2" data-name="Layer 2"><g id="svg2"><g id="layer1"><g id="g3363"><g id="g3365"><g id="g3367"><g id="g3369"><g id="g3371"><path id="path3373" d="M14.34,1.08A47.8,47.8,0,0,0,19,8.1l0,0a0,0,0,0,0,0,0A14.65,14.65,0,0,0,16.75,8a17.26,17.26,0,0,0-5.12.86,75.49,75.49,0,0,0,8.19,6.06l-.18-.05.18.09a15.91,15.91,0,0,0-12.21.91,78.23,78.23,0,0,0,8.55,4.72l-.22,0,.18.09A16,16,0,0,0,4,23.18c2.81,1.26,5.26,2.2,7.44,2.94h0l.14.07A15.86,15.86,0,0,0,.82,30.82c3.08.77,5.73,1.28,8,1.62l-.2,0H8.4l.1,0a16,16,0,0,0-8,4.59c2.1.45,4,.81,5.71,1.06a16.43,16.43,0,0,0-6,5.06c2.41.19,4.55.27,6.48.28A16,16,0,0,0,.29,49a81.11,81.11,0,0,0,8.82,0L9,49.07l-.45,0,.21.08a15.86,15.86,0,0,0-7,6.08,77.12,77.12,0,0,0,10.53-.49l-.26.08-.33,0,.13,0a15.79,15.79,0,0,0-9,6.83,79.81,79.81,0,0,0,8.84-.32l-.16.1a15.81,15.81,0,0,0-7.21,8.35c3.05-.58,5.6-1.19,7.82-1.83l-.12.08.14,0a16,16,0,0,0-5.49,7.62q3.14-.7,5.65-1.44a16.31,16.31,0,0,0-3.33,7.09c2.28-.84,4.25-1.65,6-2.45,0,0,0,.06-.06.08a1.25,1.25,0,0,0-.12.08l.06,0a16.17,16.17,0,0,0-3.45,7.56,79,79,0,0,0,8-3.68l-.19.18.06,0a15.91,15.91,0,0,0-4,8.64,76.85,76.85,0,0,0,9.09-4.68l-.07.07.15-.07A15.79,15.79,0,0,0,18.87,97.2,70.26,70.26,0,0,0,30.31,91a16,16,0,0,0-1.52,8.72,67.57,67.57,0,0,0,10.38-9.53.48.48,0,0,0,0,.12,17.11,17.11,0,0,0,.47,5.61,21.94,21.94,0,0,1,8.82-8.82c-3.72,2.42-3.05,4.37-3.05,6.6C49.83,89.06,56,84.12,57.87,81a28.79,28.79,0,0,0-4.19,10.55c-12.91,6.83-20.78,8.61-29.59,11.34,3.42,1.26,7.08,2.47,5.57,4.22l-4,4c2.58-.8,5.22-2,7.5-.39-.22,2.11-2.89,3.19-5.17,4.43,4-1.45,4.88-1.11,5.94-.77.53,2.54-1.3,3.9-2.5,5.57A105,105,0,0,1,64,103.68c13.09-4.41,30-9,34.57-20.18l4.59-18.43c5.38-5.82,10.33-11.85,12.68-19.19,15-2.9,27.1-1.86,39.74-1.53L117,37.81c-10.94-15-27.27-4.79-32.64,10-1.36,3.73-9.1,3.73-11.34,0C64.18,28.7,37.26,8.51,14.34,1.08Z"/></g><g id="g3375"><path id="path3377" class="cls-1" d="M14.08,0A47.69,47.69,0,0,0,18.8,7.05a14.66,14.66,0,0,0-2.32-.16,17.49,17.49,0,0,0-5.11.85,77,77,0,0,0,8.29,6.15,15.89,15.89,0,0,0-12.32.86,77.41,77.41,0,0,0,8.77,4.83A15.92,15.92,0,0,0,3.75,22.1c2.91,1.29,5.43,2.27,7.67,3A15.81,15.81,0,0,0,.56,29.75c3.08.76,5.73,1.27,8,1.61A15.93,15.93,0,0,0,.27,36c2.09.46,4,.8,5.71,1.06a16.26,16.26,0,0,0-6,5.06c2.42.18,4.55.27,6.47.28A16.05,16.05,0,0,0,0,47.92a83.44,83.44,0,0,0,8.82,0,15.86,15.86,0,0,0-7.4,6.27A76.91,76.91,0,0,0,12,53.7a15.82,15.82,0,0,0-9.5,7,82.62,82.62,0,0,0,8.84-.31A15.82,15.82,0,0,0,4,68.81c3.13-.6,5.75-1.23,8-1.89a15.91,15.91,0,0,0-5.65,7.72c2.1-.46,4-1,5.64-1.44a16.41,16.41,0,0,0-3.33,7.1c2.28-.84,4.25-1.65,6-2.45a16.13,16.13,0,0,0-3.56,7.7,81.27,81.27,0,0,0,8-3.67A15.94,15.94,0,0,0,15,90.66a76,76,0,0,0,9.33-4.82,15.86,15.86,0,0,0-5.68,10.28A70.79,70.79,0,0,0,30,89.93a16.05,16.05,0,0,0-1.52,8.74,67.91,67.91,0,0,0,10.37-9.54,17.38,17.38,0,0,0,.49,5.73C42.92,88.78,46.44,87,50.07,85c-5.79,2.92-4.93,5.12-4.93,7.67C49.56,88,55.73,83,57.61,80A28.76,28.76,0,0,0,53.4,90.49c-12.9,6.82-20.76,8.61-29.57,11.34,3.42,1.25,7.08,2.48,5.57,4.22l-4,4c2.58-.81,5.21-2,7.49-.39-.22,2.12-2.9,3.19-5.18,4.42,4-1.45,4.89-1.11,5.95-.77.53,2.53-1.31,3.9-2.5,5.57a104.92,104.92,0,0,1,32.65-16.32c13.09-4.41,30-9,34.55-20.17L102.93,64c5.38-5.82,10.33-11.86,12.68-19.2,15-2.9,27.1-1.85,39.74-1.53l-38.59-6.53c-11-15-27.26-4.8-32.63,10-1.36,3.73-9.1,3.73-11.34,0C63.92,27.62,37,7.44,14.08,0Z"/></g><g id="g3379"><path id="path3381" class="cls-2" d="M102.49,39.07l-.1.16a3.25,3.25,0,0,1-2,1.51,10.13,10.13,0,0,1-3.48.34l-.87,0,.63.61a1,1,0,0,1,.12,1.47,12.24,12.24,0,0,1-2,1.68l-.26.18.18.25a5.83,5.83,0,0,1,1,2.32,1.8,1.8,0,0,1-.34,1.36,9.49,9.49,0,0,1-2.77,1.81l-.2.1,0,.24A1.69,1.69,0,0,1,92,52.52a5.38,5.38,0,0,1-2,1.25l-.24.1,0,.26A4.59,4.59,0,0,0,91.15,57a3.4,3.4,0,0,0,3,.5,5.88,5.88,0,0,0,1.32,3.17c.77.76,2,1,3.62.57a4.32,4.32,0,0,0,1.52,1.93,8.83,8.83,0,0,0,2.27.86l.43-.46a10.52,10.52,0,0,1-2.35-1,3.43,3.43,0,0,1-1.36-1.83l-.09-.31-.32.1c-1.68.51-2.61.28-3.25-.36a5.88,5.88,0,0,1-1.22-3.13l-.06-.35-.35.1a2.83,2.83,0,0,1-2.76-.32,3.87,3.87,0,0,1-1-2.28A5.84,5.84,0,0,0,92.51,53a2.41,2.41,0,0,0,.59-1.73,8.28,8.28,0,0,0,2.83-1.91,2.53,2.53,0,0,0,.46-1.83,6.1,6.1,0,0,0-1-2.35,9.56,9.56,0,0,0,1.91-1.61,1.76,1.76,0,0,0,.45-1.12c0-.24-.22-.45-.35-.67a10.38,10.38,0,0,0,3.19-.36,3.91,3.91,0,0,0,2.18-1.63,37.58,37.58,0,0,1,4.37.51,8.41,8.41,0,0,0,4.55-.39l-.27-.61a7.74,7.74,0,0,1-4.18.35,34.27,34.27,0,0,0-4.59-.53Z"/></g><g id="g3383"><path id="path3385" class="cls-3" d="M108,38.82A2.8,2.8,0,1,1,105.2,36,2.8,2.8,0,0,1,108,38.82Z"/></g><g id="g3387"><path id="path3389" class="cls-2" d="M116.35,36.2c-2.51,3.27-3.14,2.42-4.67,3l-.26.1,0,.27c.59,3.29,2.54,4.33,4.05,5.52l.09-.26.4-.08c-1.52-1.2-3.18-2.21-3.79-5,1.11-.26,2.18.08,4.55-3l-.41-.51Z"/></g><g id="g3391"><path id="path3393" class="cls-2" d="M19.65,13.88c4.75,2.94,12.56,6,17.58,9.15,2.76,1.75,5.23,3.5,7.16,5a39.55,39.55,0,0,1,3.88,3.58c.52.51.88.27.53-.39a20.57,20.57,0,0,0-4-3.73c-1.95-1.52-4.43-3.27-7.21-5a82.58,82.58,0,0,0-17.92-8.59Z"/></g><g id="g3395"><path id="path3397" class="cls-2" d="M18.8,7.05c2,.46,4.93,2.16,8.19,4s6.82,4.05,10.08,6.22,5.77,4.08,7.77,5.61,2.85,2.68,3.22,2.68h.17a.39.39,0,0,0,.28-.2.38.38,0,0,0,0-.29.37.37,0,0,0-.06-.14,3.41,3.41,0,0,0-.51-.53c-.48-.44-1.28-1.08-2.29-1.85-2-1.54-5-3.65-8.23-5.83s-6.85-4.43-10.13-6.26C26.14,10,20.41,7,18.8,7.05Z"/></g><g id="g3399"><path id="path3401" class="cls-2" d="M16.08,19.58c6.09,2.48,14.76,5.4,20.54,9a92.54,92.54,0,0,1,7.84,5.55c1,.81,1.85,1.53,2.48,2.11s1,1.1,1.18,1.24c.42.3.75.1.55-.38a5.65,5.65,0,0,0-1.28-1.35c-.64-.59-1.5-1.32-2.52-2.13A93.37,93.37,0,0,0,37,28.05c-6.26-4-13.75-7.47-20.9-8.47Z"/></g><g id="g3403"><path id="path3405" class="cls-2" d="M11.4,25.1c4.74,0,14.55,4.35,18.68,6.53A79.27,79.27,0,0,1,46.24,43c.38.35.92,0,.5-.46-3.13-3.62-9.59-7.89-16.34-11.49s-13.75-6-19-6Z"/></g><g id="g3407"><path id="path3409" class="cls-2" d="M8.65,31.36a78.82,78.82,0,0,1,21.93,7,75,75,0,0,1,9,5.34,28.09,28.09,0,0,1,4.57,4c.43.49.95.51.55-.35s-2.33-2.56-4.74-4.26a74.47,74.47,0,0,0-9-5.37c-7-3.56-15-6.36-22.22-6.46Z"/></g><g id="g3411"><path id="path3413" class="cls-2" d="M11,36.67a22.72,22.72,0,0,0-5,.41c6.34-.6,15.21,2.32,21.12,5A57.06,57.06,0,0,1,42.64,52.71c.44.45.74-.12.52-.41C40.58,49,34.44,44.8,27.41,41.51A50.53,50.53,0,0,0,11,36.67Z"/></g><g id="g3415"><path id="path3417" class="cls-2" d="M6.5,42.38c6.24.46,14.6,2,20.45,4.64a53.54,53.54,0,0,1,12.6,8.35c.34.31,1,.09.47-.47C38,52.52,33.2,49.22,27.24,46.43a42.6,42.6,0,0,0-20.74-4Z"/></g><g id="g3419"><path id="path3421" class="cls-2" d="M12.11,47.57a20,20,0,0,0-3.21.34,64.84,64.84,0,0,1,14.68,2.58,35,35,0,0,1,11.05,6.16c.43.38.76-.13.47-.45-2.11-2.37-6.41-4.64-11.3-6.34a40.56,40.56,0,0,0-11.69-2.29Z"/></g><g id="g3423"><path id="path3425" class="cls-2" d="M11.92,53.72c9.06.61,14.53,2.2,18.73,6,.31.28.81-.11.47-.47-4.31-4.67-12.78-6-19.2-5.49Z"/></g><g id="g3427"><path id="path3429" class="cls-2" d="M18.9,59.15a18.33,18.33,0,0,0-7.55,1.21c7.32-1.16,10.37-.6,15.91,2,.63.3.6-.4.32-.57a19.51,19.51,0,0,0-8.68-2.64Z"/></g><g id="g3431"><path id="path3433" class="cls-2" d="M18.64,64.25A11.9,11.9,0,0,0,12,66.85c7.25-2.79,9.25-2.24,14.8-.67.73.21.5-.49.21-.61a17,17,0,0,0-8.39-1.32Z"/></g><g id="g3435"><path id="path3437" class="cls-2" d="M33,68.74a43.56,43.56,0,0,0-12,.75,21,21,0,0,0-9,3.62c6.36-2.68,7.52-2.68,9.09-3A50.56,50.56,0,0,1,33,69.39c.4,0,.38-.61,0-.65Z"/></g><g id="g3439"><path id="path3441" class="cls-2" d="M35.24,71.87A40.2,40.2,0,0,0,23,73.82a23.56,23.56,0,0,0-8.36,4,64,64,0,0,1,8.53-3.39,39.92,39.92,0,0,1,12.13-1.91c.37,0,.6-.65,0-.67Z"/></g><g id="g3443"><path id="path3445" class="cls-2" d="M38.66,74.45a69.25,69.25,0,0,0-11.69,3c-3.61,1.22-6.18,2.68-7.85,4.42A43.14,43.14,0,0,1,27.17,78,78.93,78.93,0,0,1,38.78,75.1c.57-.11.11-.69-.12-.65Z"/></g><g id="g3447"><path id="path3449" class="cls-2" d="M40.67,77.74c-7.91,1.26-13,4.67-16.3,8.06C29.42,82,32.93,80,40.81,78.38c.5-.09.35-.72-.14-.64Z"/></g><g id="g3451"><path id="path3453" class="cls-2" d="M44.53,80.63a20.34,20.34,0,0,0-14.47,9.26c5-5,9-7.77,14.61-8.61.57-.09.42-.74-.14-.65Z"/></g><g id="g3455"><path id="path3457" class="cls-2" d="M46.93,83.15a12.78,12.78,0,0,0-4.53,2A8.92,8.92,0,0,0,38.88,89a18.54,18.54,0,0,1,3.88-3.28,17,17,0,0,1,4.33-2c.59-.17.14-.69-.16-.65Z"/></g><g id="g3459"><path id="path3461" class="cls-3" d="M108,38.82A2.8,2.8,0,1,1,105.2,36,2.8,2.8,0,0,1,108,38.82Z"/></g><g id="g3463"><path id="path3465" class="cls-4" d="M108,38.82A2.8,2.8,0,1,1,105.2,36,2.8,2.8,0,0,1,108,38.82Z"/></g></g></g></g></g></g></g></g></svg>