<svg xmlns="http://www.w3.org/2000/svg" xmlns:xlink="http://www.w3.org/1999/xlink" viewBox="0 0 215.18 197.81"><defs><style>.cls-1{font-size:30px;fill:#1d6f42;font-family:MyriadPro-Regular, Myriad Pro;letter-spacing:0.02em;}.cls-2{fill:#fff;}.cls-3{fill:#207245;}.cls-4{fill:url(#radial-gradient);}</style><radialGradient id="radial-gradient" cx="-19.37" cy="281.29" r="52.19" gradientTransform="matrix(1.29, 0, 0, -2.49, 25.27, 786.36)" gradientUnits="userSpaceOnUse"><stop offset="0" stop-color="#27804d"/><stop offset="1" stop-color="#206d42"/></radialGradient></defs><title>Asset 1</title><g id="Layer_2" data-name="Layer 2"><g id="Layer_1-2" data-name="Layer 1"><text class="cls-1" transform="translate(113.43 180.3)">VBA</text><rect id="rect4556" class="cls-2" x="9.03" y="18.96" width="171.5" height="134.5" rx="3.38"/><g id="use3985"><path id="rect3991" class="cls-3" d="M99.8,122.22h29.25v15H99.8Zm35.25,0H164.3v15H135.05ZM99.8,100.44h29.25v15.75H99.8Zm35.25,0H164.3v15.75H135.05ZM99.8,78.69h29.25V94.44H99.8Zm35.25,0H164.3V94.44H135.05ZM99.8,56.94h29.25V72.69H99.8Zm35.25,0H164.3V72.69H135.05ZM99.8,35.19h29.25V50.94H99.8Zm35.25,0H164.3V50.94H135.05Zm-36.27-18v6h78.28V150H98.78v6h77.78a6.53,6.53,0,0,0,6.53-6.53V23.75a6.53,6.53,0,0,0-6.53-6.53Z"/></g><path id="path3945" class="cls-4" d="M104.38,0,0,18.56V154.5l104.31,18.84ZM71,55.94,56.06,86.66l15.35,30.9-13.88-.81L48.41,94.12l-8.94,21.6L27.25,115,41.59,86.66,28,58l13.22-.63,7.69,20.91,9.25-21.72Z"/></g></g></svg>